# xmcd
#
# Track frame offsets: 
#        150
#        16335
#        36842
#        67315
#
# Disc length: 1307 seconds
#
# Revision: 0
# Processed by: cddbd v1.5.1PL0 Copyright (c) Steve Scherf et al.
# Submitted via: ExactAudioCopy v0.95b3
#
DISCID=32051904
DTITLE=Shimmon and Woolfson - A Way Of Life
DYEAR=1998
DGENRE=Euro-Techno
TTITLE0=A Way Of Life [Break Of Life Radio Mix]
TTITLE1=A Way Of Life [Radio Mix]
TTITLE2=A Way Of Life
TTITLE3=A Way Of Life [Break Of Life Mix]
EXTD=
EXTT0=
EXTT1=
EXTT2=
EXTT3=
PLAYORDER=
